<?xml version="1.0" standalone="no"?>
<!DOCTYPE svg PUBLIC "-//W3C//DTD SVG 20010904//EN"
 "http://www.w3.org/TR/2001/REC-SVG-20010904/DTD/svg10.dtd">
<svg version="1.0" xmlns="http://www.w3.org/2000/svg"
 width="2000.000000pt" height="2000.000000pt" viewBox="0 0 2000.000000 2000.000000"
 preserveAspectRatio="xMidYMid meet">

<g transform="translate(0.000000,2000.000000) scale(0.100000,-0.100000)"
fill="#000000" stroke="none">
<path d="M9860 18064 c-177 -38 -348 -171 -429 -334 -70 -142 -71 -154 -71
-777 l0 -552 -57 -6 c-390 -40 -713 -108 -1063 -225 -1077 -358 -1979 -1080
-2576 -2062 -82 -135 -233 -431 -302 -593 -149 -350 -267 -766 -322 -1140 -56
-373 -53 -272 -57 -2515 -1 -1141 -5 -2089 -8 -2107 -3 -17 -21 -63 -41 -102
-43 -86 -105 -144 -221 -205 -377 -201 -744 -536 -993 -906 -226 -336 -379
-733 -441 -1141 -17 -109 -22 -193 -23 -344 -1 -185 1 -205 22 -265 87 -245
291 -410 540 -439 43 -5 913 -10 1952 -10 l1875 -1 7 -167 c17 -436 147 -838
388 -1201 230 -346 545 -624 914 -806 224 -110 455 -183 706 -223 161 -25 519
-25 680 0 536 85 1006 329 1369 713 391 414 617 948 639 1517 l7 167 1875 1
c1039 0 1909 5 1952 10 249 29 453 194 540 439 21 60 23 80 22 260 -2 521
-160 1030 -459 1480 -119 179 -199 276 -364 440 -193 192 -397 346 -629 474
-113 62 -158 99 -204 170 -73 113 -67 -63 -71 2241 -4 2248 -1 2147 -57 2520
-147 992 -620 1925 -1340 2645 -671 671 -1499 1114 -2435 1304 -110 22 -347
57 -487 71 l-58 6 0 552 c0 623 -1 635 -71 777 -127 256 -423 396 -709 334z
m880 -2962 c74 -12 158 -26 185 -31 1046 -204 1946 -886 2437 -1846 208 -408
347 -925 364 -1360 3 -77 6 -1051 8 -2165 3 -2219 -1 -2070 61 -2300 115 -424
407 -807 779 -1022 39 -22 103 -59 141 -81 197 -114 373 -279 501 -472 53 -79
104 -171 104 -187 0 -11 -1037 -13 -5320 -13 -4283 0 -5320 2 -5320 13 0 7 14
38 32 70 142 255 341 458 588 597 251 141 321 193 475 349 280 282 446 640
484 1046 5 52 10 1018 10 2145 1 1128 4 2066 6 2085 2 19 9 80 15 135 113 997
671 1911 1510 2474 504 339 1033 526 1655 585 22 2 290 2 595 1 508 -2 566 -4
690 -23z m324 -10762 c17 0 -1 -241 -24 -330 -64 -243 -219 -469 -421 -612
-93 -67 -237 -134 -354 -165 -89 -23 -118 -26 -265 -26 -147 0 -176 3 -265 26
-380 101 -675 397 -775 777 -25 96 -40 318 -22 329 7 4 1335 5 2126 1z"/>
</g>
</svg>
