<?xml version="1.0" standalone="no"?>
<!DOCTYPE svg PUBLIC "-//W3C//DTD SVG 20010904//EN"
 "http://www.w3.org/TR/2001/REC-SVG-20010904/DTD/svg10.dtd">
<svg version="1.0" xmlns="http://www.w3.org/2000/svg"
 width="250.000000pt" height="250.000000pt" viewBox="0 0 250.000000 250.000000"
 preserveAspectRatio="xMidYMid meet">

<g transform="translate(0.000000,250.000000) scale(0.100000,-0.100000)"
fill="#000000" stroke="none">
<path d="M440 1250 c0 -418 3 -760 8 -760 4 0 6 340 4 755 l-2 755 799 0 c753
0 800 -1 804 -17 4 -14 5 -12 6 5 l1 22 -810 0 -810 0 0 -760z"/>
<path d="M953 1983 l-492 -3 3 -733 2 -732 765 -2 c420 -1 774 1 787 3 l22 4
0 730 0 730 -254 0 c-139 0 -273 1 -297 3 -24 2 -265 2 -536 0z m-421 -44 c13
-7 23 -7 27 -1 8 12 69 14 76 2 3 -5 0 -12 -6 -16 -6 -3 -15 0 -20 7 -10 17
-17 1 -21 -50 -2 -20 -9 -37 -18 -39 -12 -4 -13 -2 -4 9 13 16 24 90 12 83 -4
-3 -8 -19 -8 -36 l0 -30 -20 23 c-10 13 -19 19 -20 12 0 -6 5 -15 10 -18 16
-10 11 -25 -8 -25 -10 0 -23 -5 -30 -12 -9 -9 -12 -9 -12 3 0 8 5 20 11 26 8
8 8 17 0 31 -22 41 -10 53 31 31z m1353 -5 c-9 -9 -18 -14 -21 -11 -9 9 6 27
22 27 13 0 13 -2 -1 -16z m53 4 c9 -9 15 -9 24 0 7 7 18 12 25 12 16 0 17 -36
2 -46 -8 -4 -8 -9 0 -17 20 -20 13 -39 -11 -31 -31 9 -34 12 -20 26 14 14 16
28 4 28 -5 0 -14 -10 -20 -22 -10 -22 -11 -22 -11 8 -1 16 -6 35 -13 42 -7 7
-8 12 -2 12 6 0 15 -5 22 -12z m-18 -53 c0 -18 6 -36 13 -38 7 -4 6 -6 -4 -6
-13 -1 -18 10 -20 43 -2 24 -1 42 4 39 4 -2 7 -19 7 -38z m-28 -53 l27 -27 1
-176 c0 -163 1 -177 20 -194 11 -10 20 -22 20 -27 0 -5 -14 7 -30 25 l-30 35
0 163 c0 159 -1 165 -24 186 l-24 23 -608 -2 c-524 -1 -611 -3 -626 -16 -16
-13 -18 -35 -18 -184 0 -105 -4 -168 -10 -168 -6 0 -10 62 -10 165 0 153 2
168 21 194 l21 29 621 0 622 0 27 -26z m-1373 -2 c-22 -18 -22 -19 -4 -20 15
0 16 -3 7 -12 -10 -10 -15 -10 -22 2 -9 15 13 50 33 50 5 0 -1 -9 -14 -20z
m1481 -21 c0 -10 -7 -19 -15 -19 -8 0 -15 7 -15 16 0 9 5 12 12 8 8 -5 9 -2 5
10 -4 10 -3 15 3 11 6 -3 10 -15 10 -26z m-920 -3 c14 -2 -74 -4 -194 -5 -196
-1 -220 -3 -232 -18 -10 -13 -13 -57 -14 -157 0 -77 -2 -137 -5 -135 -10 11
-11 300 0 309 6 5 31 10 55 12 51 3 351 -1 390 -6z m770 -1 c0 -7 6 -15 12
-17 10 -4 13 -44 13 -155 0 -83 -2 -150 -5 -149 -3 1 -16 7 -30 13 -14 6 -57
23 -97 38 -39 14 -77 33 -84 42 -16 19 -20 43 -8 43 5 0 9 -8 9 -18 0 -10 10
-24 23 -29 19 -10 85 -33 93 -33 2 0 5 21 7 48 l3 47 3 -50 c2 -46 4 -51 36
-66 l35 -16 0 136 c0 93 -4 141 -12 149 -9 9 -70 12 -212 12 -111 0 -206 4
-213 8 -6 4 88 8 208 9 177 1 219 -1 219 -12z m-444 -41 c30 -14 79 -53 120
-95 83 -85 130 -119 211 -152 140 -57 206 -133 206 -236 0 -103 -51 -168 -165
-211 -54 -20 -83 -40 -58 -40 7 0 8 -6 1 -19 -10 -18 -12 -18 -65 0 -109 37
-234 53 -406 53 -171 0 -272 -14 -408 -56 -62 -19 -64 -19 -78 -1 -7 10 -14
21 -14 25 0 4 -24 22 -54 38 -130 73 -187 196 -140 296 35 73 110 121 294 185
55 19 76 34 140 99 96 98 125 118 202 135 78 17 148 11 214 -21z m-709 4 c-3
-8 -6 -5 -6 6 -1 11 2 17 5 13 3 -3 4 -12 1 -19z m30 -45 c-2 -16 -4 -5 -4 22
0 28 2 40 4 28 2 -13 2 -35 0 -50z m900 35 c-3 -7 -5 -2 -5 12 0 14 2 19 5 13
2 -7 2 -19 0 -25z m30 -35 c-2 -16 -4 -5 -4 22 0 28 2 40 4 28 2 -13 2 -35 0
-50z m130 45 c-3 -8 -6 -5 -6 6 -1 11 2 17 5 13 3 -3 4 -12 1 -19z m-1120 -40
c-3 -7 -5 -2 -5 12 0 14 2 19 5 13 2 -7 2 -19 0 -25z m320 0 c-3 -7 -5 -2 -5
12 0 14 2 19 5 13 2 -7 2 -19 0 -25z m610 0 c-3 -7 -5 -2 -5 12 0 14 2 19 5
13 2 -7 2 -19 0 -25z m-660 -70 c-2 -13 -4 -5 -4 17 -1 22 1 32 4 23 2 -10 2
-28 0 -40z m-270 -5 c-3 -10 -5 -2 -5 17 0 19 2 27 5 18 2 -10 2 -26 0 -35z
m130 0 c-3 -10 -5 -2 -5 17 0 19 2 27 5 18 2 -10 2 -26 0 -35z m800 25 c-3 -8
-6 -5 -6 6 -1 11 2 17 5 13 3 -3 4 -12 1 -19z m130 0 c-3 -8 -6 -5 -6 6 -1 11
2 17 5 13 3 -3 4 -12 1 -19z m-1000 -25 c-3 -10 -5 -4 -5 12 0 17 2 24 5 18 2
-7 2 -21 0 -30z m130 0 c-3 -10 -5 -4 -5 12 0 17 2 24 5 18 2 -7 2 -21 0 -30z
m800 0 c-3 -10 -5 -4 -5 12 0 17 2 24 5 18 2 -7 2 -21 0 -30z m130 0 c-3 -10
-5 -4 -5 12 0 17 2 24 5 18 2 -7 2 -21 0 -30z m-160 -25 c-3 -7 -5 -2 -5 12 0
14 2 19 5 13 2 -7 2 -19 0 -25z m-930 0 c-3 -8 -6 -5 -6 6 -1 11 2 17 5 13 3
-3 4 -12 1 -19z m151 -59 c-7 -5 -17 -9 -23 -9 -5 1 -2 5 8 11 9 5 18 22 18
37 l2 27 4 -29 c3 -17 -1 -32 -9 -37z m-118 39 c0 -7 -4 -19 -9 -27 -7 -10 -9
-7 -8 12 2 26 17 39 17 15z m-63 -55 c-3 -10 -5 -2 -5 17 0 19 2 27 5 18 2
-10 2 -26 0 -35z m57 -8 c3 -8 1 -15 -4 -15 -6 0 -10 7 -10 15 0 8 2 15 4 15
2 0 6 -7 10 -15z m-124 -556 c0 -90 3 -119 13 -119 7 0 13 10 13 23 0 12 2 63
4 112 l4 90 6 -120 c4 -88 8 -119 18 -118 6 2 12 -1 12 -6 0 -6 -16 -7 -35 -4
-46 7 -45 -7 2 -46 26 -22 32 -31 20 -31 -9 0 -17 -7 -17 -15 0 -8 -4 -15 -10
-15 -5 0 -10 12 -10 28 0 15 -5 34 -10 42 -7 10 -10 -6 -10 -55 1 -106 0 -105
174 -105 91 0 146 4 146 10 0 6 -53 10 -139 10 -138 0 -171 4 -171 21 0 4 37
5 83 2 63 -4 91 -2 121 11 47 20 57 20 32 1 -18 -14 -16 -15 32 -15 38 0 54
-4 58 -15 9 -23 649 -23 658 0 3 10 19 15 45 15 34 0 39 3 34 18 -6 15 -5 16
12 2 14 -11 45 -15 127 -15 59 0 108 -3 108 -7 0 -4 -11 -18 -24 -32 l-23 -26
-619 0 -619 0 -28 29 -27 29 0 217 c0 141 3 214 10 210 6 -4 10 -57 10 -126z
m1320 -14 l0 -135 -65 0 c-36 0 -65 2 -65 4 0 2 3 11 6 20 7 19 25 22 22 4 -2
-7 7 -14 20 -16 22 -3 22 -2 22 115 0 80 3 113 10 103 5 -8 10 -59 10 -112 0
-59 4 -98 10 -98 6 0 10 48 10 125 0 77 4 125 10 125 6 0 10 -52 10 -135z
m-1223 63 c-3 -8 -6 -5 -6 6 -1 11 2 17 5 13 3 -3 4 -12 1 -19z m813 -24 c121
-26 261 -76 282 -101 9 -11 8 -20 -5 -43 -9 -15 -17 -34 -17 -42 -1 -34 -16
-40 -51 -20 -72 42 -228 77 -384 88 -174 13 -457 -34 -528 -87 -20 -14 -32
-18 -35 -11 -2 7 -14 33 -27 59 -29 56 -24 66 50 98 83 37 267 80 375 87 87 7
235 -6 340 -28z m-813 -61 c-2 -16 -4 -5 -4 22 0 28 2 40 4 28 2 -13 2 -35 0
-50z m50 25 c-3 -7 -5 -2 -5 12 0 14 2 19 5 13 2 -7 2 -19 0 -25z m1072 -5 c0
-33 -1 -35 -9 -15 -8 20 -4 52 6 52 2 0 4 -17 3 -37z m-1091 -124 c-7 -5 -22
-9 -32 -9 -19 0 -19 0 0 19 14 13 23 16 32 8 11 -8 11 -12 0 -18z m674 11
c124 -11 251 -39 271 -59 7 -7 6 -18 -2 -33 l-12 -23 5 23 c3 15 -2 26 -15 32
-16 9 -19 7 -19 -12 0 -18 -2 -20 -9 -9 -7 11 -13 5 -25 -25 -27 -67 -29 -69
-82 -69 -27 0 -162 2 -301 3 l-252 2 -26 57 c-14 31 -24 62 -21 68 2 7 51 19
108 29 176 28 222 30 380 16z m-631 -75 c17 -19 37 -35 45 -35 19 0 18 -16 -2
-24 -24 -9 -164 -7 -164 2 0 5 9 17 21 28 l21 19 -29 22 -28 23 53 0 c48 0 55
-3 83 -35z m119 25 c0 -5 -6 -10 -14 -10 -8 0 -16 -5 -18 -12 -3 -9 -6 -9 -12
0 -6 10 13 24 42 31 1 1 2 -3 2 -9z m1010 -2 c0 -4 -11 -15 -25 -24 -24 -16
-25 -18 -10 -40 14 -22 14 -23 -20 -30 -40 -7 -145 3 -145 15 0 4 16 15 35 24
20 9 37 26 40 39 5 21 12 23 65 23 33 0 60 -3 60 -7z m22 -43 c-4 -50 -10 -54
-38 -24 -19 21 -19 21 11 45 17 13 30 24 30 24 0 0 -1 -20 -3 -45z m-1087 14
c10 -15 -1 -23 -20 -15 -9 3 -13 10 -10 16 8 13 22 13 30 -1z m55 -31 c-1 -30
-3 -38 -9 -28 -8 14 -4 70 5 70 2 0 4 -19 4 -42z m831 27 c0 -5 -9 -11 -21
-13 -15 -3 -18 1 -14 13 7 17 35 17 35 0z m-1201 -85 c0 -5 -7 -10 -16 -10 -8
0 -12 5 -9 10 3 6 10 10 16 10 5 0 9 -4 9 -10z m1480 0 c0 -5 -7 -10 -15 -10
-8 0 -15 5 -15 10 0 6 7 10 15 10 8 0 15 -4 15 -10z m-1466 -49 c-2 -3 -12 3
-22 13 -16 17 -16 18 5 5 12 -7 20 -15 17 -18z m6 -11 c22 -1 23 -2 8 -11 -10
-5 -18 -15 -18 -21 0 -7 5 -6 15 2 13 10 15 9 15 -8 0 -12 5 -24 10 -27 6 -3
10 0 10 7 0 10 3 9 9 -1 8 -12 12 -12 25 -2 13 11 16 11 16 -2 0 -22 -18 -31
-34 -17 -11 8 -15 8 -18 -2 -4 -10 -8 -10 -19 -2 -8 7 -22 8 -34 3 -11 -4 -23
-8 -27 -8 -13 -1 -9 34 4 47 9 9 9 15 0 24 -7 7 -12 19 -12 27 0 12 3 12 12 3
7 -7 23 -12 38 -12z m48 -4 c2 -10 -1 -23 -8 -30 -9 -8 -11 -6 -9 9 2 11 0 26
-5 34 -6 9 -5 12 5 9 8 -3 16 -13 17 -22z m1345 16 c-6 -4 -13 -23 -16 -42 -4
-33 -4 -33 -5 8 -2 34 1 42 16 42 11 0 13 -3 5 -8z m68 -26 c-9 -10 -9 -21 0
-40 15 -33 9 -39 -26 -26 -16 6 -32 7 -39 1 -21 -17 -83 0 -71 20 4 5 17 2 30
-7 24 -15 25 -15 35 10 5 14 7 34 4 43 -2 10 1 8 7 -4 7 -13 16 -23 21 -23 12
0 10 18 -3 26 -7 4 -1 11 17 19 31 13 43 3 25 -19z"/>
<path d="M1174 1766 c-64 -16 -98 -40 -170 -122 -63 -71 -97 -93 -189 -119
-134 -38 -246 -124 -261 -200 -14 -77 48 -190 129 -231 15 -8 46 -31 68 -51
21 -19 39 -31 39 -26 0 13 -48 55 -90 81 -47 28 -106 90 -119 125 -6 16 -11
50 -11 76 0 42 5 54 39 92 48 55 108 88 226 125 88 28 92 30 175 115 94 96
118 111 203 129 119 24 197 -7 315 -127 84 -85 113 -104 232 -156 109 -47 152
-103 152 -198 0 -91 -52 -154 -153 -188 -45 -15 -87 -57 -72 -72 8 -8 13 -8
17 0 4 6 4 11 0 11 -19 0 33 41 65 51 93 30 153 101 159 188 8 109 -39 164
-206 242 -93 44 -112 58 -196 143 -79 81 -100 96 -146 110 -63 19 -134 19
-206 2z"/>
<path d="M1040 1501 c0 -23 5 -41 10 -41 6 0 10 15 10 34 0 19 -4 38 -10 41
-6 4 -10 -10 -10 -34z"/>
<path d="M1093 1532 c-7 -4 -11 -22 -11 -40 1 -28 5 -32 22 -30 14 2 22 11 24
29 3 28 -17 52 -35 41z m17 -22 c0 -5 -4 -10 -10 -10 -5 0 -10 5 -10 10 0 6 5
10 10 10 6 0 10 -4 10 -10z m0 -30 c0 -5 -5 -10 -11 -10 -5 0 -7 5 -4 10 3 6
8 10 11 10 2 0 4 -4 4 -10z"/>
<path d="M1150 1525 c-14 -17 -5 -35 16 -35 8 0 12 -5 9 -11 -4 -6 -13 -8 -21
-5 -8 3 -14 1 -14 -3 0 -11 22 -19 38 -14 18 7 15 40 -5 52 -10 6 -12 11 -5
11 6 0 12 5 12 10 0 15 -16 12 -30 -5z"/>
<path d="M1211 1527 c-25 -25 -5 -82 25 -70 20 7 17 40 -3 53 -17 11 -17 11 0
6 20 -6 23 9 3 17 -7 3 -19 0 -25 -6z m29 -47 c0 -5 -4 -10 -10 -10 -5 0 -10
5 -10 10 0 6 5 10 10 10 6 0 10 -4 10 -10z"/>
<path d="M1302 1515 c-1 -17 -7 -36 -14 -43 -9 -9 -4 -11 22 -9 19 2 40 0 45
-4 6 -5 10 9 11 37 1 44 -10 49 -18 9 -2 -11 -11 -21 -20 -23 -12 -2 -18 6
-21 30 l-4 33 -1 -30z"/>
<path d="M1400 1532 c-19 -9 -23 -45 -4 -38 19 7 18 -4 -3 -21 -17 -13 -16
-14 5 -8 14 4 22 2 23 -7 0 -7 5 -1 11 15 5 15 14 25 18 22 5 -3 8 4 7 15 -1
11 -4 20 -8 20 -4 0 -13 2 -21 4 -7 3 -20 2 -28 -2z"/>
<path d="M1320 1521 c0 -5 5 -13 10 -16 6 -3 10 -2 10 4 0 5 -4 13 -10 16 -5
3 -10 2 -10 -4z"/>
<path d="M1445 1470 c3 -5 11 -10 16 -10 6 0 7 5 4 10 -3 6 -11 10 -16 10 -6
0 -7 -4 -4 -10z"/>
<path d="M1600 1320 c0 -77 -1 -80 -23 -80 -33 0 -67 -28 -67 -55 0 -26 33
-55 62 -55 28 0 59 38 57 68 -1 15 -1 46 -1 70 2 40 3 42 33 42 24 0 30 4 27
18 -3 12 -12 16 -32 14 -24 -3 -27 0 -21 17 4 14 0 23 -15 31 -19 10 -20 8
-20 -70z m-11 -124 c14 -17 -9 -39 -33 -30 -19 7 -21 30 -3 37 20 9 24 8 36
-7z"/>
<path d="M990 1361 c0 -26 -4 -30 -32 -33 -41 -4 -39 -23 2 -24 16 0 30 -3 30
-7 0 -52 0 -54 -37 -63 -51 -13 -63 -36 -37 -71 26 -34 54 -40 83 -16 20 16
22 28 24 128 2 97 0 110 -15 113 -14 3 -18 -3 -18 -27z m-2 -174 c4 -20 -25
-34 -40 -19 -15 15 -1 44 19 40 10 -2 19 -11 21 -21z"/>
<path d="M1300 1316 l0 -75 -32 -6 c-18 -3 -41 -4 -50 -2 -21 3 -22 -2 -13
-59 6 -40 8 -44 28 -38 12 4 40 7 61 8 l39 1 1 120 c1 106 -1 120 -17 123 -15
3 -17 -6 -17 -72z m-2 -123 c-4 -21 -58 -30 -58 -9 0 14 17 22 48 25 8 0 12
-6 10 -16z"/>
<path d="M1184 1342 c-8 -20 -26 -49 -40 -63 -35 -36 -12 -50 25 -15 l27 26
22 -23 c19 -19 24 -20 32 -7 7 11 4 21 -14 36 -16 15 -21 26 -15 35 13 21 11
36 -6 43 -10 4 -20 -6 -31 -32z"/>
<path d="M870 1352 c0 -11 -14 -38 -31 -61 -36 -50 -31 -64 12 -32 29 22 31
22 50 5 16 -14 22 -15 32 -5 9 10 6 17 -17 35 -18 15 -24 26 -17 30 19 12 13
46 -9 46 -13 0 -20 -7 -20 -18z"/>
<path d="M1499 1363 l-46 -4 2 -52 c2 -58 0 -57 85 -40 57 11 53 29 -5 26 -39
-3 -45 0 -45 16 0 16 8 20 38 23 24 2 37 8 37 17 0 17 -6 18 -66 14z"/>
<path d="M1657 1183 c-15 -15 -7 -43 13 -43 15 0 20 7 20 25 0 24 -18 34 -33
18z"/>
<path d="M1605 660 c-6 -10 25 -12 175 -15 75 -1 100 3 100 16 0 12 -267 12
-275 -1z"/>
<path d="M1177 1003 c-2 -4 -5 -22 -5 -40 -1 -35 22 -51 44 -32 20 17 17 34
-8 48 l-23 12 23 -5 c15 -3 22 0 19 7 -4 14 -43 22 -50 10z m33 -53 c0 -5 -4
-10 -9 -10 -6 0 -13 5 -16 10 -3 6 1 10 9 10 9 0 16 -4 16 -10z"/>
<path d="M1250 964 c0 -27 4 -43 10 -39 6 3 10 24 10 46 0 21 -4 39 -10 39 -5
0 -10 -21 -10 -46z"/>
<path d="M1290 970 c0 -22 5 -40 10 -40 6 0 10 6 10 13 0 7 9 13 20 13 13 0
20 -7 20 -18 0 -10 5 -18 10 -18 6 0 10 20 10 45 0 49 -5 54 -26 28 -13 -17
-15 -17 -25 0 -17 29 -29 19 -29 -23z"/>
<path d="M1080 985 c-20 -24 3 -65 35 -65 14 0 25 4 25 9 0 5 3 16 6 25 4 12
0 16 -15 16 -12 0 -21 -4 -21 -10 0 -5 5 -10 11 -10 5 0 7 -5 3 -11 -10 -17
-38 16 -30 36 4 11 12 14 27 10 15 -5 19 -4 15 4 -10 16 -41 14 -56 -4z"/>
<path d="M1397 993 c-2 -5 -3 -24 -3 -43 1 -38 25 -52 51 -30 20 17 19 66 -1
74 -21 8 -42 8 -47 -1z m48 -23 c7 -12 -12 -40 -26 -40 -5 0 -9 11 -9 25 0 25
23 35 35 15z"/>
<path d="M1033 970 c6 -24 -5 -26 -23 -5 -20 24 -30 17 -23 -17 7 -42 23 -60
23 -28 0 22 1 23 20 5 11 -10 23 -15 26 -12 10 10 -6 77 -18 77 -6 0 -8 -9 -5
-20z"/>
<path d="M1493 964 c-36 -53 -36 -54 -3 -48 19 4 30 2 30 -5 0 -6 4 -11 10
-11 10 0 3 54 -10 79 -5 10 -12 6 -27 -15z"/>
<path d="M947 934 c5 -29 3 -36 -8 -32 -8 3 -16 13 -17 24 -6 31 -22 41 -22
13 0 -34 22 -62 46 -57 21 4 29 28 20 64 -10 38 -25 28 -19 -12z"/>
<path d="M1556 939 c-8 -42 -8 -49 4 -49 6 0 10 8 10 18 0 14 4 12 20 -8 10
-14 21 -23 23 -20 10 12 17 80 8 80 -5 0 -11 -10 -14 -22 -3 -22 -4 -22 -15 5
-15 36 -28 34 -36 -4z"/>
<path d="M831 932 c-8 -15 -7 -23 4 -32 8 -6 19 -9 24 -6 5 4 12 2 15 -3 4 -5
-6 -11 -21 -13 -23 -4 -25 -6 -10 -12 24 -11 47 0 47 24 0 15 -7 20 -25 20
-14 0 -25 5 -25 11 0 7 9 9 21 6 13 -3 19 -1 16 6 -6 20 -35 19 -46 -1z"/>
<path d="M1644 915 c-9 -36 2 -55 30 -55 27 0 44 29 24 42 -18 11 -28 10 -28
-2 0 -5 5 -10 11 -10 5 0 7 -5 4 -10 -5 -8 -11 -7 -21 1 -10 8 -11 16 -3 31 8
15 13 17 25 7 16 -13 30 -6 19 10 -3 6 -17 11 -30 11 -18 0 -26 -7 -31 -25z"/>
<path d="M1042 784 c-10 -10 -10 -14 -1 -14 7 0 5 -8 -6 -20 -19 -21 -8 -29
13 -8 8 8 15 8 28 -3 16 -13 16 -12 6 8 -8 14 -8 23 -2 25 6 2 2 8 -8 14 -13
9 -20 8 -30 -2z"/>
<path d="M1109 785 c-1 -8 -2 -22 -3 -31 -1 -12 9 -17 32 -19 29 -2 32 0 32
24 0 31 -8 43 -22 35 -5 -3 -4 -12 3 -20 10 -12 9 -13 -5 -8 -9 3 -16 12 -16
20 0 19 -20 18 -21 -1z"/>
<path d="M1188 765 c-4 -33 -3 -34 29 -33 26 1 31 4 22 15 -9 10 -8 13 2 13
10 1 8 4 -4 11 -9 5 -22 7 -29 3 -7 -4 -8 -3 -4 5 4 6 16 9 27 6 11 -4 19 -2
19 4 0 6 -13 11 -29 11 -25 0 -29 -4 -33 -35z m32 -9 c0 -3 -4 -8 -10 -11 -5
-3 -10 -1 -10 4 0 6 5 11 10 11 6 0 10 -2 10 -4z"/>
<path d="M1267 794 c-8 -8 -10 -58 -2 -66 3 -2 19 -3 35 0 28 4 31 8 28 36 -2
25 -8 32 -28 34 -14 2 -29 0 -33 -4z"/>
<path d="M1401 793 c-1 -7 -9 -13 -18 -13 -15 0 -15 -2 -4 -9 12 -8 12 -12 2
-25 -22 -26 0 -18 25 10 24 26 31 40 15 30 -5 -4 -12 0 -14 6 -4 10 -6 10 -6
1z"/>
<path d="M1457 793 c-4 -3 -7 -19 -7 -35 0 -24 4 -28 29 -28 36 0 41 7 34 43
-4 20 -11 27 -27 27 -13 0 -26 -3 -29 -7z"/>
<path d="M1410 752 c0 -12 19 -26 26 -19 2 2 -2 10 -11 17 -9 8 -15 8 -15 2z"/>
<path d="M1890 755 c0 -8 4 -15 10 -15 5 0 7 7 4 15 -4 8 -8 15 -10 15 -2 0
-4 -7 -4 -15z"/>
<path d="M2055 1485 c0 -225 1 -319 2 -208 2 111 2 295 0 410 -1 114 -2 24 -2
-202z"/>
<path d="M2051 984 c0 -11 3 -14 6 -6 3 7 2 16 -1 19 -3 4 -6 -2 -5 -13z"/>
<path d="M2052 693 c-1 -112 1 -203 6 -203 4 0 6 60 4 132 -4 249 -8 273 -10
71z"/>
<path d="M583 493 c65 -2 168 -2 230 0 62 1 9 3 -118 3 -126 0 -177 -2 -112
-3z"/>
<path d="M1008 493 c7 -3 16 -2 19 1 4 3 -2 6 -13 5 -11 0 -14 -3 -6 -6z"/>
<path d="M1078 493 c7 -3 16 -2 19 1 4 3 -2 6 -13 5 -11 0 -14 -3 -6 -6z"/>
<path d="M1338 493 c106 -2 277 -2 380 0 103 1 16 2 -193 2 -209 0 -293 -1
-187 -2z"/>
</g>
</svg>
