<?xml version="1.0" standalone="no"?>
<!DOCTYPE svg PUBLIC "-//W3C//DTD SVG 20010904//EN"
 "http://www.w3.org/TR/2001/REC-SVG-20010904/DTD/svg10.dtd">
<svg version="1.0" xmlns="http://www.w3.org/2000/svg"
 width="1955.000000pt" height="808.000000pt" viewBox="0 0 1955.000000 808.000000"
 preserveAspectRatio="xMidYMid meet">

<g transform="translate(0.000000,808.000000) scale(0.100000,-0.100000)"
fill="#000000" stroke="none">
<path d="M15303 7869 c-17 -5 -45 -26 -62 -48 -36 -45 -39 -56 -11 -41 11 6
20 8 20 6 0 -3 -13 -12 -29 -21 -38 -19 -49 -52 -25 -70 14 -10 16 -16 6 -27
-19 -23 -62 -199 -62 -254 0 -28 -7 -71 -16 -95 -8 -24 -23 -85 -34 -135 -38
-189 -100 -259 -281 -319 -91 -31 -119 -45 -155 -79 -44 -42 -58 -71 -29 -60
11 5 13 2 9 -10 -3 -9 -1 -16 5 -16 5 0 1 -16 -11 -37 l-22 -36 42 7 c38 6 45
3 67 -21 15 -17 24 -41 25 -60 0 -24 5 -33 17 -33 9 0 25 -8 35 -17 13 -12 34
-17 64 -15 24 1 44 -2 44 -7 0 -5 -9 -28 -20 -52 -11 -24 -20 -65 -20 -90 0
-50 1 -49 -85 -76 -17 -5 -29 -15 -28 -23 2 -11 -25 -23 -95 -43 -53 -16 -160
-53 -237 -83 -77 -31 -250 -98 -385 -150 -387 -151 -441 -179 -605 -318 -55
-47 -122 -92 -172 -117 -46 -23 -83 -45 -83 -50 0 -5 -10 -14 -22 -18 -18 -7
-29 -3 -49 16 -26 23 -28 24 -57 9 -69 -36 -250 -235 -361 -399 -77 -113 -141
-312 -141 -436 0 -75 8 -94 36 -86 18 6 18 6 2 -8 -24 -19 -23 -37 2 -37 13 0
22 -9 26 -25 5 -20 13 -25 36 -25 28 0 78 -38 78 -60 0 -20 15 -10 28 20 12
26 19 30 50 30 49 -1 116 -32 138 -64 19 -30 28 -29 117 11 l57 27 0 50 c0 66
35 138 92 194 36 35 86 61 249 133 384 170 482 210 533 220 46 8 67 20 144 76
17 12 28 14 40 7 18 -12 170 39 218 73 16 11 54 33 84 48 30 15 65 36 78 48
56 52 -4 64 -83 17 -33 -20 -64 -30 -90 -30 -23 0 -45 -4 -51 -10 -6 -6 -20
-6 -41 2 -28 10 -35 8 -79 -20 -26 -18 -59 -33 -73 -33 -14 -1 -35 -2 -46 -3
-30 -2 -80 -32 -99 -60 -19 -30 -38 -33 -60 -10 -21 20 -21 70 0 78 8 3 33 3
53 0 27 -4 49 0 77 14 21 10 61 24 87 31 27 6 66 23 87 36 22 14 61 30 87 35
29 7 93 40 163 84 182 116 375 206 441 206 18 0 56 -8 86 -17 l54 -17 52 51
c82 80 102 87 228 79 87 -6 117 -4 158 10 52 17 74 35 53 42 -26 8 -9 21 52
42 75 25 98 45 85 78 -9 24 -21 24 -103 -5 -46 -15 -75 -16 -96 -3 -23 16 17
44 98 71 85 28 129 50 203 102 58 41 71 68 36 75 -9 2 -86 -24 -169 -58 -201
-81 -278 -90 -313 -36 -9 13 -13 30 -10 39 5 13 109 67 129 67 4 0 28 22 54
48 38 39 67 56 156 92 60 24 127 58 150 76 23 19 62 45 88 58 47 26 88 68 88
91 0 24 -73 13 -156 -21 -87 -37 -105 -36 -122 0 -10 23 -8 24 86 50 53 15
131 42 172 61 41 18 96 42 122 52 27 10 48 24 48 31 0 14 46 17 54 3 7 -10
-108 -91 -128 -91 -14 0 -56 -37 -56 -48 0 -5 6 -17 14 -27 14 -19 16 -19 60
13 75 54 133 75 231 83 50 4 118 11 153 15 53 6 70 4 105 -14 63 -31 201 -49
269 -33 89 19 137 82 149 191 6 59 4 70 -21 120 -58 115 -119 175 -206 205
-30 10 -45 10 -83 -2 -111 -33 -252 -48 -626 -63 -224 -10 -333 -25 -327 -45
1 -6 26 -9 56 -7 35 3 58 -1 67 -10 25 -25 118 -38 267 -39 81 0 165 -4 187
-8 l40 -8 -105 -51 c-58 -29 -109 -52 -115 -52 -5 0 -24 -13 -41 -29 -16 -16
-41 -32 -55 -36 -13 -4 -143 -65 -289 -135 -146 -70 -300 -141 -343 -157 -75
-27 -78 -29 -73 -56 4 -17 2 -26 -4 -22 -6 4 -35 -3 -66 -14 -65 -25 -112 -27
-120 -6 -4 10 -13 13 -25 10 -15 -5 -19 -1 -19 17 0 13 5 29 12 36 9 9 8 12
-6 12 -32 0 -54 -19 -67 -57 -21 -66 -59 -74 -59 -13 0 31 32 142 45 158 2 2
20 -2 42 -8 54 -16 112 11 190 89 57 56 65 61 103 59 35 -1 46 4 78 35 20 20
59 46 85 57 43 19 48 25 43 46 -19 75 -21 69 38 87 63 20 72 29 51 50 -8 9
-15 20 -15 25 0 5 -26 12 -58 15 -112 10 -152 54 -132 144 26 116 92 200 187
238 74 29 133 68 178 114 l29 31 -19 57 c-69 203 -339 365 -522 312z m447
-1289 c0 -5 -10 -10 -22 -10 -19 0 -20 2 -8 10 19 13 30 13 30 0z m-312 -698
c2 -7 -6 -12 -17 -12 -21 0 -27 11 -14 24 9 9 26 2 31 -12z m-108 -27 c-13
-16 -55 -20 -64 -6 -9 14 5 21 42 21 29 0 33 -2 22 -15z m108 -112 c-4 -21
-27 -27 -48 -13 -13 9 -13 11 0 20 25 16 52 12 48 -7z"/>
<path d="M3099 7646 c-2 -2 -71 -9 -154 -16 -153 -12 -280 -38 -322 -65 -12
-8 -30 -15 -40 -15 -31 0 -89 -47 -116 -92 -23 -40 -25 -54 -28 -188 l-4 -145
85 -124 c47 -68 111 -150 143 -182 31 -32 57 -62 57 -68 0 -12 32 -22 84 -26
23 -2 77 -15 121 -29 106 -34 157 -33 305 9 139 39 165 42 217 20 46 -19 68
-19 99 2 21 13 52 17 163 17 l137 1 89 44 c74 36 105 60 196 151 l109 107 0
49 c0 138 -135 269 -416 404 l-121 59 -94 -6 c-70 -4 -125 0 -215 16 -67 12
-142 21 -167 21 -37 0 -51 5 -75 30 -29 28 -43 35 -53 26z"/>
<path d="M13957 6859 c-39 -23 -79 -28 -134 -17 -61 12 -150 0 -208 -29 -39
-20 -93 -71 -111 -105 -23 -43 -17 -74 32 -169 44 -86 90 -139 120 -139 8 0
13 -9 11 -22 -3 -31 103 -84 212 -105 137 -27 263 5 340 85 30 32 31 37 15 42
-15 5 -18 19 -20 71 -2 102 -19 136 -95 188 -36 25 -74 51 -84 57 -35 20 -40
39 -20 83 14 33 16 43 5 56 -14 17 -37 19 -63 4z"/>
<path d="M3437 6647 c-45 -10 -52 -16 -106 -91 -318 -446 -511 -969 -608
-1656 l-8 -55 -83 -42 c-83 -43 -162 -57 -177 -33 -3 6 3 10 15 10 55 0 102
44 159 148 39 70 40 75 24 98 -10 15 -13 35 -10 54 6 27 0 35 -79 100 -125
103 -149 113 -228 99 -95 -16 -158 -1 -313 78 l-132 67 -7 55 c-8 68 0 163 21
223 32 93 133 177 213 178 25 0 35 5 42 24 12 33 20 35 58 19 40 -16 35 -28
-15 -36 -73 -12 -110 -59 -55 -70 85 -19 133 -92 158 -244 16 -96 17 -99 67
-150 l50 -52 28 44 c15 24 73 80 133 128 125 100 160 140 183 214 12 37 25 59
39 65 39 18 44 87 17 211 -15 67 -21 77 -39 77 -13 0 -36 17 -59 46 -21 25
-79 81 -129 124 -51 43 -105 97 -120 119 -42 60 -37 66 167 192 65 40 51 54
-18 17 -30 -16 -69 -33 -86 -38 l-32 -9 21 22 22 23 -48 -2 c-26 -1 -57 -5
-69 -9 -24 -8 -30 4 -12 22 6 6 8 17 4 23 -12 20 -90 2 -207 -46 -59 -24 -114
-44 -122 -44 -30 0 -204 -118 -250 -168 -11 -13 -16 -30 -13 -42 3 -11 -7 -63
-22 -114 -25 -89 -32 -100 -113 -198 -191 -231 -272 -370 -290 -502 -14 -102
-31 -167 -103 -381 -35 -104 -71 -226 -80 -270 -18 -82 -24 -253 -13 -315 7
-34 5 -36 -72 -98 -228 -183 -393 -264 -627 -308 -31 -6 -102 -63 -139 -111
-17 -23 -39 -70 -49 -108 -16 -58 -17 -77 -7 -133 l11 -66 133 -133 c159 -160
218 -196 320 -195 116 0 177 34 381 211 179 155 242 196 341 220 28 7 64 25
82 41 19 16 50 31 76 35 32 6 57 20 95 55 48 44 84 60 135 60 11 0 32 13 48
28 32 33 112 73 203 102 34 11 71 25 81 31 45 26 189 69 230 69 24 0 60 7 81
15 20 9 45 13 55 10 21 -7 43 -67 33 -91 -3 -7 13 -42 34 -76 22 -35 66 -113
97 -175 69 -133 136 -212 209 -247 94 -44 92 -45 117 26 31 92 35 184 16 365
-10 87 -16 182 -14 212 l3 55 110 36 c61 20 137 50 170 68 33 17 67 32 75 32
32 0 140 61 235 134 55 42 119 84 143 93 34 13 42 21 40 37 -1 12 17 47 43 82
66 90 94 181 94 314 0 101 -17 201 -37 227 -8 10 -16 8 -35 -7 -24 -19 -53
-27 -53 -14 0 3 5 14 10 25 6 10 7 19 2 19 -21 0 -62 -56 -87 -117 -14 -37
-32 -75 -40 -86 -21 -30 -579 -278 -624 -277 -9 0 -25 7 -35 15 -18 13 -18 19
-7 72 61 288 234 763 388 1067 40 77 61 105 122 161 l73 67 -1 131 c-2 147
-14 188 -62 212 -32 17 -100 17 -172 2z m-1588 -1658 c17 -17 31 -34 31 -38 0
-16 -49 -51 -125 -90 -87 -44 -95 -43 -95 22 0 114 116 179 189 106z m555
-240 c-29 -33 -63 -46 -181 -74 -125 -30 -184 -55 -198 -87 -5 -12 -16 -23
-22 -26 -23 -7 -13 17 23 57 75 84 222 144 368 150 29 1 29 1 10 -20z m-594
-279 c0 -17 -43 -50 -67 -50 -29 0 -30 24 -1 44 25 18 68 21 68 6z"/>
<path d="M5140 6416 c-62 -23 -141 -66 -290 -159 -80 -50 -179 -106 -220 -126
l-75 -36 -150 -1 c-89 0 -161 -5 -177 -12 -30 -12 -118 -127 -118 -152 1 -8
14 -49 30 -90 37 -92 38 -133 5 -176 -28 -36 -23 -44 36 -63 53 -17 62 -45 64
-196 2 -111 6 -142 29 -215 18 -54 30 -122 35 -184 7 -86 11 -102 30 -118 35
-27 96 -24 123 7 27 31 32 31 71 1 18 -14 70 -41 116 -62 96 -44 97 -40 -29
-104 -41 -21 -84 -48 -95 -60 l-20 -23 25 7 c14 4 63 25 110 47 73 35 87 39
107 28 18 -10 31 -10 63 1 22 7 43 11 46 8 9 -10 -73 -61 -246 -153 -170 -90
-225 -124 -216 -132 3 -3 45 9 94 26 50 17 101 31 114 31 18 0 34 13 57 45 38
53 76 75 130 75 34 0 40 3 50 30 5 17 14 30 18 31 4 0 37 2 73 4 36 2 119 15
185 29 136 29 202 32 268 12 45 -14 46 -13 76 18 46 47 79 163 52 180 -5 4
-21 37 -35 74 -30 77 -66 118 -117 132 -18 6 -84 10 -146 10 -61 0 -118 3
-127 6 -11 4 0 18 42 54 32 26 118 112 192 191 74 79 190 199 256 266 l121
123 27 94 c38 133 42 181 21 252 -9 32 -23 66 -31 75 -8 9 -49 29 -90 44 -50
18 -82 37 -96 55 -17 24 -25 27 -61 23 -36 -4 -56 2 -139 46 -101 53 -129 58
-188 37z m-146 -673 c-27 -37 -84 -105 -128 -150 -84 -88 -222 -200 -233 -190
-3 4 10 40 30 79 40 82 121 178 198 234 56 41 171 105 178 99 2 -2 -18 -35
-45 -72z m-101 -374 c-58 -56 -113 -99 -153 -119 -34 -17 -64 -30 -65 -28 -11
11 59 77 146 138 54 39 103 79 109 89 7 13 16 17 32 13 19 -5 11 -15 -69 -93z"/>
<path d="M10580 6147 c-20 -7 -55 -23 -79 -37 l-44 -25 49 -5 c47 -5 49 -6 49
-35 0 -29 -2 -30 -46 -33 -30 -2 -53 -10 -64 -22 -16 -18 -16 -20 9 -43 14
-13 26 -30 26 -36 0 -7 23 -21 50 -33 53 -22 61 -40 38 -77 -15 -25 2 -47 57
-72 39 -18 39 -19 8 -13 -18 3 -33 3 -33 0 0 -3 52 -40 115 -82 157 -103 173
-140 49 -117 -42 7 -57 7 -65 -3 -14 -18 -3 -34 24 -34 12 -1 37 -14 55 -29
32 -28 32 -28 8 -24 -24 5 -26 2 -26 -30 0 -44 35 -124 60 -137 11 -6 20 -20
20 -30 0 -11 7 -20 15 -20 21 0 65 -52 65 -77 0 -30 28 -75 69 -109 19 -16 50
-43 70 -60 57 -49 71 -54 103 -38 17 9 28 10 28 4 0 -5 8 -10 19 -10 23 0 46
-27 46 -54 0 -14 7 -22 23 -24 12 -2 30 -15 39 -28 24 -37 62 -54 90 -41 18 8
27 6 44 -8 23 -22 78 -22 141 1 43 15 58 12 58 -12 0 -21 4 -19 58 34 58 56
109 83 122 62 6 -9 22 -5 69 20 55 30 84 51 214 161 26 22 41 29 50 21 46 -37
92 74 92 223 -1 86 -16 178 -37 218 -9 18 -11 18 -34 -4 l-24 -22 0 30 c0 21
-12 45 -35 73 -19 23 -35 47 -35 53 0 7 -20 23 -45 36 -25 13 -80 53 -122 89
-93 80 -169 127 -237 146 -28 8 -141 33 -251 56 -249 50 -279 59 -440 127 -71
30 -157 61 -190 69 -72 16 -176 17 -225 1z m891 -367 c29 -16 23 -27 -17 -34
-36 -7 -84 13 -84 34 0 13 76 13 101 0z m294 -188 c58 -36 155 -114 155 -123
0 -14 -39 -49 -54 -49 -9 0 -12 7 -9 19 4 16 -7 25 -54 48 -40 19 -59 34 -61
49 -2 16 -8 20 -21 17 -22 -6 -26 0 -36 45 -7 32 -6 34 16 27 13 -5 42 -19 64
-33z"/>
<path d="M16603 6071 c-4 -17 -9 -18 -35 -9 -39 14 -76 -3 -89 -40 l-10 -28
-72 18 c-71 18 -72 18 -86 -2 -10 -15 -24 -20 -61 -20 -26 0 -68 -3 -94 -6
-58 -8 -61 -32 -11 -80 19 -18 35 -38 35 -44 0 -14 44 -30 84 -30 38 0 106
-25 106 -40 0 -5 -4 -12 -10 -15 -22 -14 -7 -23 46 -27 33 -3 62 -11 68 -19 6
-8 46 -27 88 -43 43 -15 106 -45 140 -67 35 -21 104 -59 154 -83 97 -46 137
-77 132 -102 -5 -24 119 -87 157 -80 26 5 32 1 48 -25 9 -17 17 -43 17 -59 0
-38 41 -72 181 -151 72 -40 135 -85 172 -121 50 -49 57 -61 57 -95 0 -22 4
-43 9 -48 5 -6 5 -79 0 -173 -8 -146 -12 -173 -44 -267 -19 -58 -35 -112 -35
-120 0 -8 -18 -34 -40 -56 -27 -28 -40 -50 -40 -69 0 -43 -54 -64 -139 -56
-108 11 -181 12 -184 2 -3 -9 -36 0 -127 33 -30 11 -76 20 -101 21 -55 0 -101
23 -241 120 -102 70 -129 80 -160 57 -14 -11 -15 -22 -7 -77 6 -36 11 -85 13
-110 3 -45 29 -100 48 -100 5 0 7 -9 3 -19 -4 -14 3 -25 27 -42 56 -38 87 -71
93 -99 6 -28 95 -123 95 -101 0 8 9 5 28 -9 36 -28 239 -149 278 -166 17 -7
71 -18 120 -24 49 -7 111 -21 138 -33 45 -19 54 -20 134 -8 47 6 101 20 121
30 82 40 226 123 244 139 28 24 47 75 47 124 0 24 9 62 20 85 18 40 20 42 53
36 30 -4 37 -1 69 36 49 58 73 127 114 328 23 117 48 207 75 274 66 163 68
188 36 342 -22 109 -24 132 -13 141 8 6 17 21 20 32 5 18 -2 27 -43 53 -32 21
-64 54 -91 97 -25 37 -69 85 -104 113 -86 69 -150 139 -181 201 -19 37 -30 49
-37 42 -17 -17 -55 3 -104 54 -58 59 -151 102 -245 113 -41 5 -149 34 -244 65
-93 31 -175 56 -182 56 -7 0 -17 8 -22 19 -6 10 -48 37 -94 61 -67 34 -100 44
-163 50 -43 5 -96 16 -117 25 -37 15 -39 15 -44 -4z"/>
<path d="M9548 6048 c-16 -5 -28 -15 -28 -22 0 -6 -15 -20 -32 -30 -18 -11
-43 -28 -55 -39 -31 -28 -40 -14 -20 28 36 75 7 89 -50 25 -20 -22 -42 -40
-49 -40 -15 0 -24 -23 -24 -61 0 -30 -3 -33 -52 -43 -24 -5 -28 -11 -28 -40 0
-38 -13 -51 -89 -92 -78 -42 -75 -33 -115 -304 -15 -103 -24 -131 -58 -172
-32 -41 -38 -140 -10 -177 14 -19 17 -32 11 -43 -15 -27 1 -48 60 -78 69 -34
134 -103 168 -176 l24 -54 67 0 c96 0 226 17 304 40 84 25 105 49 191 224 50
100 77 143 117 181 51 50 89 105 71 105 -4 0 -14 -7 -21 -15 -7 -8 -16 -15
-21 -15 -15 0 -10 37 6 54 20 20 19 37 -7 92 -22 43 -22 46 -5 59 15 11 16 19
8 56 -6 24 -11 69 -11 100 0 43 -5 60 -20 74 -14 13 -20 31 -20 62 0 23 4 43
9 43 17 0 40 30 35 45 -4 8 -19 15 -34 15 -19 0 -33 8 -44 25 -9 14 -22 25
-29 25 -6 0 -45 33 -87 74 -79 78 -112 93 -162 74z"/>
<path d="M8015 5603 c-16 -2 -78 -15 -137 -29 -105 -26 -108 -27 -108 -54 0
-22 -10 -36 -50 -64 -130 -93 -230 -285 -230 -442 0 -47 -6 -66 -30 -104 -117
-182 -116 -494 1 -777 17 -40 38 -75 47 -78 10 -2 51 -32 92 -64 41 -33 77
-58 81 -56 3 3 37 -25 75 -61 38 -37 88 -75 112 -86 23 -10 50 -31 59 -46 33
-52 168 -181 195 -187 15 -4 45 -24 66 -46 22 -21 62 -49 90 -62 28 -13 59
-30 68 -37 28 -24 176 -109 269 -155 108 -53 278 -115 395 -145 103 -25 318
-98 455 -152 136 -55 279 -104 377 -129 71 -18 99 -19 222 -14 78 3 180 13
229 22 70 13 95 14 125 4 20 -6 53 -11 72 -10 90 1 123 -2 151 -16 16 -9 39
-13 53 -9 14 3 39 -2 63 -14 21 -11 65 -25 96 -31 32 -6 63 -14 70 -18 14 -9
153 -16 277 -15 108 1 144 12 208 67 102 88 149 261 108 398 -12 40 -12 47 0
47 18 0 18 5 -1 34 -9 14 -13 38 -11 65 5 54 -54 179 -113 235 -23 23 -36 43
-31 46 13 8 -35 79 -143 212 -160 196 -187 238 -152 238 51 0 -39 138 -147
226 -40 33 -111 96 -159 142 -61 57 -95 82 -112 82 -18 0 -31 10 -45 34 -19
33 -24 35 -71 34 -34 0 -51 -4 -51 -12 0 -7 22 -42 48 -77 26 -35 59 -81 71
-103 22 -35 22 -38 5 -34 -10 2 -42 36 -70 77 -27 40 -62 82 -77 93 -27 20
-27 20 -27 0 0 -11 7 -25 16 -33 21 -17 46 -68 39 -79 -3 -5 -12 -7 -20 -3
-21 8 -19 -8 12 -66 14 -28 23 -54 19 -58 -10 -11 -40 26 -76 92 -18 33 -36
64 -41 70 -17 18 -9 -9 17 -52 26 -44 29 -83 7 -90 -6 -2 -31 23 -54 56 -24
34 -47 61 -51 61 -4 0 -17 9 -28 20 -25 25 -25 18 2 -47 12 -29 19 -56 15 -59
-10 -11 -44 24 -58 59 -25 66 -42 97 -50 97 -16 0 -9 -40 16 -96 14 -30 25
-62 25 -72 0 -25 11 -36 45 -47 24 -8 38 -26 68 -84 20 -40 37 -88 37 -105 0
-30 0 -30 -20 -11 -11 11 -25 38 -33 59 -13 38 -37 61 -37 35 0 -7 27 -69 61
-138 56 -115 82 -191 65 -191 -3 0 -19 15 -35 32 -16 18 -32 30 -36 26 -7 -7
18 -61 46 -97 11 -13 19 -31 19 -41 0 -9 9 -27 20 -40 22 -26 26 -40 9 -40 -7
0 -9 -12 -4 -36 7 -41 -3 -54 -43 -54 -15 0 -21 -4 -16 -11 5 -9 -1 -10 -22
-5 -16 4 -87 6 -159 6 -115 -1 -145 2 -260 30 -201 49 -306 86 -332 117 -6 8
-62 32 -125 54 -62 22 -126 46 -143 54 -36 17 -105 31 -202 41 -60 5 -73 10
-73 24 0 13 -12 18 -53 23 -29 3 -82 19 -118 36 -36 17 -69 31 -74 31 -12 0
-138 92 -167 122 -24 26 -120 78 -144 78 -6 0 -19 9 -29 20 -12 13 -31 20 -56
20 -49 0 -215 59 -270 97 -53 34 -116 115 -129 163 -5 19 -18 97 -29 173 l-20
138 92 122 c109 144 148 224 155 318 4 56 1 75 -20 120 -21 47 -22 57 -11 79
22 44 17 96 -14 119 -34 27 -92 41 -148 34z"/>
<path d="M15037 5496 c-67 -33 -69 -39 -14 -34 44 5 87 29 87 50 0 13 -22 9
-73 -16z"/>
<path d="M14820 5420 c-123 -26 -168 -39 -176 -52 -5 -8 12 -9 62 -5 84 7 164
31 196 57 27 23 27 23 -82 0z"/>
<path d="M14823 5185 c-35 -7 -67 -16 -72 -20 -6 -3 -9 -23 -8 -43 1 -25 -6
-49 -21 -69 -27 -39 -133 -446 -162 -624 -11 -68 -24 -138 -29 -155 -22 -77
-23 -150 -1 -270 28 -158 39 -192 68 -215 31 -24 52 -10 52 32 0 16 4 29 8 29
13 0 83 -53 111 -83 42 -46 141 -45 141 2 0 10 -7 24 -15 31 -25 21 -18 40 16
40 29 0 30 2 24 29 -5 26 1 38 47 89 29 33 56 61 59 61 3 1 45 -17 93 -39 l86
-41 -15 -36 c-9 -20 -35 -60 -60 -89 -48 -56 -68 -95 -59 -118 3 -8 -4 -24
-16 -36 -17 -17 -21 -31 -18 -66 l3 -45 -65 -19 c-36 -11 -119 -31 -185 -45
-138 -30 -265 -67 -314 -94 l-34 -18 32 -6 c18 -4 31 -13 31 -21 0 -12 -5 -13
-31 -4 -35 12 -53 1 -25 -16 81 -49 96 -66 96 -105 0 -33 4 -40 25 -45 19 -5
28 -18 41 -62 9 -30 22 -58 30 -61 8 -3 56 13 107 36 51 22 117 46 146 53 49
11 54 10 67 -8 37 -54 51 -57 65 -14 14 39 39 40 39 0 0 -35 -32 -60 -88 -69
-33 -6 -37 -10 -43 -41 -3 -19 -11 -45 -17 -57 -16 -29 -83 -75 -171 -117 -56
-27 -67 -36 -58 -47 10 -10 9 -11 -3 -2 -19 14 -255 -63 -302 -99 -30 -24 -32
-24 -102 -10 -129 26 -245 -5 -340 -92 -46 -43 -48 -48 -43 -85 2 -22 30 -91
61 -154 84 -174 130 -200 273 -154 104 35 169 50 353 87 157 31 326 77 457
124 87 31 298 57 488 59 l130 2 -3 -37 c-2 -28 2 -39 17 -47 26 -14 377 -14
501 0 52 6 125 12 162 13 75 3 93 11 57 25 -13 5 -19 10 -14 11 6 0 3 5 -5 10
-11 7 -12 12 -4 20 8 8 55 7 172 -3 133 -12 168 -19 197 -37 20 -12 35 -24 33
-26 -2 -1 -54 8 -116 21 -61 14 -118 22 -126 19 -17 -6 -28 -31 -18 -38 4 -2
73 -12 153 -20 154 -17 244 -37 509 -110 91 -26 205 -53 254 -62 49 -8 106
-24 127 -35 71 -36 95 -23 171 89 76 111 74 126 -28 228 -85 86 -75 81 -247
128 -28 8 -79 18 -112 21 -33 4 -96 12 -140 20 -44 7 -111 16 -150 20 -38 3
-106 12 -150 20 -196 34 -334 39 -749 27 -221 -7 -472 -17 -558 -23 -125 -9
-164 -9 -188 1 -21 9 -29 18 -25 29 2 9 9 58 14 109 10 96 19 117 52 127 16 5
18 10 9 21 -26 30 74 92 313 195 160 68 238 160 241 283 l1 49 -87 47 c-47 26
-100 57 -116 69 -25 17 -44 21 -116 21 -218 0 -205 69 35 196 158 84 219 155
219 258 0 24 -16 44 -80 106 -76 72 -91 98 -72 126 4 6 60 37 126 68 118 57
119 58 255 198 75 77 144 152 154 167 47 70 44 180 -5 237 -19 22 -28 40 -24
52 4 11 -1 25 -13 36 -18 16 -192 63 -321 86 -95 17 -282 15 -365 -5 -70 -16
-218 -84 -370 -169 l-79 -45 -22 52 c-26 61 -48 70 -139 62 -92 -9 -101 5 -40
59 28 24 47 47 44 50 -13 14 -128 15 -186 1z m386 -292 c11 -10 27 -36 34 -58
11 -33 27 -49 89 -90 41 -28 95 -57 119 -65 24 -7 48 -17 52 -21 12 -10 -183
-210 -262 -269 -79 -59 -177 -114 -191 -105 -17 10 -40 106 -40 164 1 145 77
289 178 337 l34 16 -31 32 c-50 52 -35 102 18 59z"/>
<path d="M6870 4973 c-14 -43 -37 -73 -56 -73 -20 0 -25 15 -13 49 19 54 3 58
-23 6 -31 -61 -66 -95 -77 -77 -17 28 -86 -19 -143 -95 -26 -36 -43 -51 -48
-43 -5 8 -11 7 -23 -4 -8 -9 -24 -16 -34 -16 -18 0 -109 -95 -132 -137 -15
-29 -116 -94 -135 -87 -9 4 -24 -9 -42 -35 -26 -40 -27 -45 -30 -218 -5 -205
2 -246 58 -355 60 -117 207 -256 342 -325 60 -31 112 -27 196 14 106 52 188
160 226 300 18 67 37 323 35 464 -1 63 4 109 13 138 14 37 35 262 29 301 -2 8
-6 37 -10 64 -5 27 -13 51 -19 53 -6 2 -19 -24 -29 -59 -15 -57 -52 -155 -63
-168 -2 -3 -12 6 -23 19 -29 36 -26 111 6 149 15 19 21 33 15 37 -14 9 -12 45
5 78 14 27 11 57 -5 57 -5 0 -14 -17 -20 -37z"/>
<path d="M10280 4635 c0 -25 41 -85 58 -85 20 0 4 40 -29 74 -25 25 -29 27
-29 11z"/>
<path d="M10370 4643 c0 -4 9 -14 21 -21 18 -12 20 -11 17 5 -3 17 -38 32 -38
16z"/>
<path d="M4340 4581 c-39 -12 -56 -22 -59 -36 -3 -19 -2 -19 16 -2 11 9 31 17
44 17 25 0 68 24 59 33 -3 3 -30 -3 -60 -12z"/>
<path d="M4193 4507 c-36 -13 -70 -43 -61 -53 10 -10 70 14 103 41 26 21 27
24 10 24 -11 0 -34 -6 -52 -12z"/>
<path d="M4053 4430 c-86 -31 -213 -101 -300 -166 -45 -34 -97 -65 -115 -69
-65 -14 -115 -49 -228 -160 -63 -61 -137 -129 -165 -149 -86 -65 -117 -142
-91 -228 10 -36 88 -167 123 -207 8 -10 76 31 120 71 25 24 79 87 120 141 78
102 127 156 168 183 25 16 26 15 65 -27 50 -55 108 -171 112 -223 l3 -40 -123
-86 c-67 -48 -147 -108 -176 -133 -96 -83 -171 -220 -183 -334 l-6 -51 114
-55 c63 -30 124 -65 136 -78 l22 -24 -29 -49 c-15 -27 -65 -94 -110 -148 -75
-88 -92 -103 -178 -150 -110 -61 -193 -136 -212 -192 -17 -53 -9 -143 19 -197
28 -54 110 -139 172 -179 139 -90 325 -93 416 -8 41 38 368 107 943 198 556
88 830 143 1053 210 63 20 67 23 67 51 0 41 18 80 78 172 28 43 54 94 58 113
6 33 2 39 -68 112 -101 104 -111 125 -103 217 4 44 3 75 -3 79 -29 17 -66 -92
-55 -162 6 -37 4 -38 -62 -17 -16 4 -26 -4 -48 -39 -57 -91 -82 -103 -335
-157 -405 -86 -640 -117 -799 -104 -69 6 -83 10 -88 26 -4 10 -26 54 -50 97
-85 148 -82 217 15 423 75 157 81 197 47 272 -39 86 -159 197 -274 256 -35 18
-49 34 -78 91 -20 40 -42 70 -50 70 -8 0 -15 9 -15 20 0 55 -56 111 -158 159
-29 14 -52 27 -52 31 0 3 21 32 48 65 63 78 154 146 309 229 164 88 265 148
260 152 -12 12 -149 -46 -267 -111 -87 -48 -146 -75 -166 -75 -32 0 -97 -30
-198 -93 -33 -20 -69 -37 -80 -37 -17 1 -13 8 24 41 50 44 115 87 271 178 92
54 174 111 159 110 -3 0 -28 -9 -57 -19z m-281 -1448 c-13 -26 -26 -38 -45
-40 -26 -3 -26 -2 -17 25 19 52 35 75 55 83 28 11 32 -21 7 -68z"/>
<path d="M18480 3207 c-176 -10 -212 -13 -237 -22 -13 -4 -23 -8 -24 -9 0 0
-2 -91 -5 -201 -3 -110 -6 -205 -9 -212 -2 -6 0 -74 4 -150 4 -76 5 -174 2
-218 -5 -67 -2 -91 18 -152 l23 -72 47 -11 c25 -6 62 -10 81 -10 19 1 76 -1
125 -5 177 -12 596 -8 665 6 79 16 116 37 118 67 2 15 4 44 6 65 2 20 1 37 -1
37 -2 0 -22 -12 -44 -27 -26 -17 -58 -28 -92 -31 -46 -3 -87 3 -259 38 -21 4
-45 13 -53 20 -9 8 -30 11 -54 7 -32 -4 -47 0 -78 21 -28 20 -51 27 -85 27
-38 0 -48 3 -48 17 0 9 -9 20 -21 23 -14 5 -18 12 -14 23 29 75 31 109 23 392
-5 188 -14 242 -43 262 -22 15 30 20 83 7 68 -16 95 -40 88 -77 -6 -32 -9
-161 -7 -363 l1 -147 29 -31 c25 -26 36 -31 77 -31 27 0 66 -6 89 -14 160 -55
289 -68 369 -37 39 15 42 18 35 43 -4 15 -5 29 -2 32 5 5 14 119 16 196 0 22
-11 215 -13 215 -1 0 -9 105 -14 188 -4 55 -7 60 -45 88 -35 25 -55 31 -139
39 -128 13 -456 17 -612 7z m476 -178 c9 -7 12 -60 12 -177 1 -143 -2 -176
-20 -232 -12 -36 -23 -71 -24 -77 -2 -7 -14 -13 -27 -13 -38 0 -46 18 -35 80
13 74 10 283 -4 330 -3 8 -10 31 -17 51 -6 19 -11 37 -11 40 0 9 115 7 126 -2z
m-534 -92 c36 -31 37 -35 28 -67 -6 -22 -6 -38 0 -44 13 -13 13 -193 0 -268
-5 -32 -17 -66 -27 -77 -25 -27 -76 -52 -83 -42 -11 19 -5 368 7 382 7 9 10
36 8 69 -4 48 6 80 24 80 3 0 23 -15 43 -33z m758 -82 c11 -13 12 -28 10 -116
-2 -68 -27 -114 -73 -134 -30 -13 -32 -12 -38 8 -3 12 -3 27 1 32 7 11 7 163
0 184 -6 17 48 49 72 43 10 -2 22 -10 28 -17z"/>
<path d="M15425 2423 c-33 -2 -64 -8 -69 -14 -6 -6 -5 -9 3 -9 8 0 10 -7 6
-19 -5 -17 -1 -18 62 -14 105 6 152 13 158 24 4 5 1 9 -4 9 -6 0 -11 7 -11 15
0 16 -7 16 -145 8z"/>
<path d="M10360 1460 c-8 -5 -23 -37 -35 -72 l-20 -63 -63 -5 c-70 -6 -102
-30 -102 -76 0 -33 15 -39 99 -39 59 0 76 -3 85 -17 15 -25 -13 -51 -71 -63
-73 -16 -84 -39 -92 -192 -9 -160 0 -208 42 -234 18 -10 44 -19 59 -19 36 0
58 -10 58 -26 0 -22 -35 -34 -100 -34 -51 0 -65 -4 -85 -25 -29 -28 -31 -51
-9 -84 16 -22 21 -23 95 -17 73 6 79 5 93 -16 12 -16 16 -47 16 -110 0 -65 4
-90 16 -102 43 -43 67 -6 75 111 4 60 11 100 20 108 8 8 45 19 83 24 149 21
142 106 -9 119 -96 7 -101 36 -9 53 26 5 59 19 72 31 23 22 23 25 20 186 l-3
164 -33 29 c-21 19 -43 29 -65 29 -41 0 -52 8 -61 44 -9 38 4 46 79 46 58 0
105 18 105 41 0 26 -42 49 -89 49 -68 0 -101 27 -101 84 0 65 -32 100 -70 76z
m146 -441 c27 -30 34 -188 9 -225 -16 -25 -19 -26 -93 -19 -43 3 -98 8 -123 9
-55 4 -69 11 -69 36 0 30 18 34 123 32 132 -4 176 24 133 84 -12 16 -30 20
-118 24 -100 5 -103 6 -106 29 -6 40 21 51 128 51 86 0 99 -2 116 -21z"/>
<path d="M7308 1445 c-27 -15 -37 -34 -43 -85 -6 -45 -23 -69 -53 -77 -15 -3
-107 -7 -204 -7 -172 -1 -177 -2 -202 -25 -32 -30 -36 -85 -7 -101 11 -5 51
-10 90 -10 l69 0 7 -65 c10 -86 -5 -109 -83 -131 -31 -9 -67 -26 -79 -37 -31
-28 -30 -72 1 -93 23 -14 30 -14 86 0 34 9 82 28 106 42 l45 27 88 -27 c75
-23 92 -25 115 -15 30 14 43 48 28 76 -6 10 -35 27 -66 37 -83 28 -117 61
-123 119 -8 69 3 77 101 77 44 0 86 -4 93 -8 19 -12 28 -188 14 -248 -20 -82
-94 -179 -195 -256 -102 -77 -183 -122 -256 -144 -60 -18 -85 -49 -76 -96 9
-45 24 -58 65 -58 77 0 211 85 368 233 65 62 87 77 96 68 8 -8 12 -66 12 -196
1 -165 3 -186 19 -204 27 -30 71 -27 92 5 15 22 16 47 10 220 -5 139 -4 194 4
194 6 0 48 -32 93 -71 45 -39 100 -80 122 -91 22 -12 73 -41 114 -66 135 -82
199 -86 228 -15 11 27 10 34 -7 56 -12 15 -35 28 -57 32 -73 13 -141 43 -218
95 -102 69 -234 196 -268 259 -24 43 -27 61 -29 154 -2 135 -1 137 108 137 71
0 87 -3 104 -20 24 -24 25 -39 6 -84 -15 -37 -79 -86 -111 -86 -58 0 -86 -68
-45 -105 20 -18 23 -18 104 8 98 32 139 34 201 7 94 -40 167 -38 187 5 18 41
-10 71 -91 95 -80 24 -118 50 -138 98 -12 30 -12 37 1 58 22 32 41 40 116 48
36 4 73 15 83 23 26 24 21 60 -10 80 -23 16 -43 17 -143 13 -178 -8 -296 -2
-330 15 -29 15 -34 24 -45 87 -4 28 -13 42 -35 53 -34 18 -28 18 -62 0z"/>
<path d="M9379 1446 c-38 -19 -49 -53 -42 -129 12 -129 -22 -148 -267 -151
-182 -2 -224 -13 -236 -61 -7 -30 18 -74 44 -77 9 -1 107 -2 217 -2 l200 -1 3
-50 c2 -42 -4 -64 -38 -135 -86 -177 -215 -317 -347 -376 -120 -54 -127 -59
-138 -99 -8 -35 -7 -39 23 -66 18 -16 38 -29 45 -29 6 0 41 14 76 30 49 23 88
55 165 133 163 164 249 284 310 430 9 22 20 36 26 32 6 -4 23 -32 39 -63 16
-31 64 -106 107 -167 42 -60 98 -139 123 -175 125 -178 216 -236 277 -175 20
20 25 34 22 63 -3 33 -9 41 -67 79 -130 84 -267 247 -349 414 -49 99 -59 137
-39 163 12 16 33 19 186 24 150 4 175 7 197 24 13 11 24 30 24 43 0 45 -20 50
-210 51 -246 0 -259 7 -247 137 7 77 -9 120 -51 135 -21 7 -36 7 -53 -2z"/>
<path d="M10922 1448 c-7 -7 -12 -29 -12 -49 0 -21 -6 -41 -12 -45 -7 -5 -46
-7 -87 -7 -41 1 -82 -2 -92 -7 -22 -12 -32 -55 -19 -80 10 -18 20 -20 93 -18
106 2 129 -5 125 -40 l-3 -27 -110 -5 c-60 -3 -118 -9 -127 -14 -36 -17 -33
-73 6 -81 11 -2 161 -6 331 -7 l310 -3 3 31 c2 26 -3 36 -26 53 -25 17 -30 29
-35 78 -7 68 -37 103 -90 103 -35 1 -114 20 -134 33 -7 5 -13 23 -13 41 0 41
-15 56 -60 56 -20 0 -41 -5 -48 -12z m226 -211 c21 -17 10 -61 -18 -70 -32
-12 -106 8 -114 30 -8 20 18 50 48 56 27 5 67 -3 84 -16z"/>
<path d="M15282 1449 c-33 -12 -43 -43 -41 -126 4 -138 -9 -146 -231 -148
-181 -2 -230 -13 -262 -56 -16 -21 -17 -30 -8 -51 20 -43 49 -49 234 -48 94 0
181 1 194 0 19 0 22 -5 22 -38 0 -28 -12 -56 -45 -107 -24 -39 -56 -92 -71
-120 -30 -57 -142 -211 -174 -240 -12 -11 -63 -40 -113 -65 -68 -33 -96 -52
-106 -74 -16 -34 -4 -67 33 -91 22 -14 31 -15 63 -4 62 20 141 76 222 157 105
105 157 183 236 350 38 78 74 142 80 142 15 0 19 -10 51 -118 13 -46 31 -96
38 -111 27 -51 175 -220 315 -357 53 -53 100 -66 139 -37 14 10 30 32 35 47
12 36 -13 72 -74 105 -57 32 -283 253 -316 309 -33 57 -63 154 -63 206 0 72
16 79 188 84 81 2 160 8 175 14 36 14 51 42 37 68 -18 34 -57 42 -160 36 -121
-8 -256 6 -278 28 -13 13 -17 37 -17 110 0 77 -3 98 -18 114 -21 23 -55 32
-85 21z"/>
<path d="M11647 1427 c-34 -12 -57 -38 -57 -63 0 -12 10 -47 21 -78 19 -49 20
-63 11 -123 -6 -45 -7 -155 0 -323 12 -336 4 -386 -67 -416 -37 -15 -75 -58
-75 -85 0 -22 46 -59 74 -59 11 0 41 10 66 21 25 11 97 36 160 55 460 138 488
143 549 95 66 -52 248 -159 289 -170 73 -20 122 21 88 74 -9 14 -68 51 -136
85 -101 52 -129 71 -179 127 -36 38 -78 100 -103 150 -42 82 -42 84 -24 99 15
11 55 14 165 15 170 0 214 11 219 51 6 48 -23 56 -218 63 -233 8 -220 4 -220
65 0 65 12 70 162 67 100 -2 118 1 155 21 96 50 109 196 26 277 -64 62 -90 65
-511 62 -205 -1 -383 -6 -395 -10z m707 -103 c89 -8 126 -31 126 -79 0 -51
-38 -57 -403 -63 l-328 -5 3 64 c3 55 6 65 27 75 26 14 438 19 575 8z m-351
-260 c71 -6 77 -9 87 -34 6 -15 10 -41 8 -56 l-3 -29 -130 -7 c-71 -3 -148 -9
-170 -12 -56 -8 -70 4 -70 61 0 82 2 83 108 83 52 0 128 -3 170 -6z m122 -281
c3 -21 10 -58 16 -83 26 -103 31 -93 -68 -127 -48 -17 -135 -48 -193 -68 -147
-52 -143 -52 -152 20 -5 33 -5 110 -2 172 l6 112 66 4 c37 2 124 4 194 5 l127
2 6 -37z"/>
<path d="M13054 1420 c-61 -9 -89 -23 -110 -56 -13 -20 -15 -30 -6 -49 9 -20
8 -25 -8 -30 -24 -8 -28 -21 -40 -141 -13 -133 -13 -719 0 -766 15 -51 58 -94
111 -108 37 -10 54 -10 106 4 51 13 121 16 420 16 415 0 410 -1 453 85 25 50
25 52 24 320 -1 372 -19 613 -50 662 -21 33 -88 52 -233 63 -152 11 -589 11
-667 0z m792 -141 c26 -24 44 -75 44 -123 0 -23 -3 -27 -12 -18 -8 8 -49 12
-117 12 l-106 1 62 25 c70 29 82 47 55 84 -27 36 -52 36 -98 -1 -21 -17 -49
-35 -61 -40 -25 -9 -30 -38 -11 -57 16 -16 5 -15 -36 2 -27 11 -35 22 -44 58
-7 25 -19 51 -28 59 -15 12 -8 15 62 20 43 4 121 5 173 4 80 -3 96 -7 117 -26z
m-468 1 c-11 -17 -8 -24 25 -58 33 -34 36 -40 23 -51 -29 -25 -180 -38 -324
-30 -61 4 -65 2 -90 -26 l-25 -30 7 75 c5 59 3 80 -9 97 -15 21 -14 22 27 31
24 6 118 10 211 11 164 1 167 1 155 -19z m521 -416 c1 -94 -2 -212 -5 -261
l-7 -91 -52 18 c-29 10 -64 24 -77 30 -35 19 -78 62 -78 79 -1 23 112 243 133
259 21 16 22 65 1 86 -19 19 -68 21 -82 4 -5 -7 -13 -32 -17 -55 -7 -42 -73
-164 -92 -170 -19 -7 -55 99 -60 177 -7 103 1 110 147 111 58 0 121 6 140 12
32 11 36 11 42 -8 3 -11 6 -97 7 -191z m-817 166 c30 0 76 6 101 14 26 8 55
12 65 10 9 -2 55 -8 101 -13 94 -10 111 -22 111 -75 0 -27 32 -154 71 -284 13
-42 13 -43 -16 -67 -17 -13 -52 -36 -80 -51 -67 -36 -85 -53 -85 -79 0 -29 19
-45 55 -45 34 0 79 25 148 83 l48 40 47 -45 c26 -25 66 -59 90 -76 l42 -30
-82 4 c-46 3 -94 7 -108 9 -14 2 -140 -1 -280 -7 -289 -13 -308 -11 -328 43
-12 34 -10 338 5 522 5 72 7 77 23 62 11 -10 36 -15 72 -15z"/>
<path d="M13135 973 c-30 -8 -45 -23 -45 -44 0 -12 -7 -19 -20 -19 -29 0 -43
-36 -43 -113 0 -53 5 -74 20 -95 l20 -27 139 4 c77 2 147 8 157 13 79 41 71
230 -10 267 -29 14 -185 24 -218 14z m182 -95 c26 -24 30 -69 9 -91 -20 -19
-167 -32 -195 -17 -17 9 -21 20 -21 65 l0 54 88 4 c48 1 89 4 91 5 3 1 15 -8
28 -20z"/>
<path d="M13313 631 c-66 -30 -208 -71 -246 -71 -66 0 -85 -55 -37 -104 19
-19 20 -19 100 13 44 17 113 43 153 57 107 39 138 55 147 78 18 47 -42 61
-117 27z"/>
<path d="M6406 1404 c-12 -12 -16 -25 -11 -43 3 -14 9 -51 12 -83 11 -117 -75
-412 -164 -561 -62 -105 -169 -214 -248 -252 -98 -47 -115 -62 -115 -99 0 -59
51 -81 127 -53 18 7 76 48 130 93 139 114 148 120 179 104 29 -16 93 -98 123
-157 29 -57 67 -86 106 -79 37 8 55 30 55 70 0 25 -21 55 -105 151 -57 66
-107 132 -110 147 -4 17 4 52 23 100 26 67 69 229 123 469 33 143 16 195 -68
206 -29 4 -44 1 -57 -13z"/>
<path d="M16361 1405 c-83 -18 -111 -37 -111 -75 0 -16 6 -32 13 -37 6 -4 73
-8 148 -8 103 0 140 -3 153 -14 15 -13 17 -33 14 -167 -3 -131 -6 -156 -21
-171 -15 -15 -40 -18 -173 -21 -117 -3 -159 0 -171 10 -22 18 -13 209 15 296
20 62 20 62 1 73 -11 5 -29 7 -40 4 -29 -9 -76 -114 -88 -195 -20 -130 -32
-359 -28 -535 5 -230 19 -269 100 -282 27 -4 45 0 72 17 36 22 37 22 413 19
354 -4 379 -3 415 15 24 12 46 34 60 60 21 40 22 49 20 345 -1 172 -6 325 -13
354 -6 27 -13 91 -17 141 -8 128 -24 143 -182 170 -122 21 -485 21 -580 1z
m606 -151 c54 -40 72 -90 83 -230 6 -71 11 -200 11 -287 1 -146 -1 -161 -23
-205 -33 -67 -68 -84 -197 -94 -112 -8 -156 0 -166 31 -2 9 -6 66 -6 126 -2
115 10 179 37 189 9 3 75 9 146 13 108 5 134 9 150 25 21 21 23 47 4 73 -11
15 -33 20 -112 26 -105 8 -183 21 -201 32 -7 5 -11 57 -12 151 -2 182 -5 179
151 174 89 -3 111 -6 135 -24z m-424 -463 c5 -5 8 -74 6 -154 -6 -197 3 -188
-187 -185 l-145 3 -19 65 c-20 73 -22 120 -8 182 5 24 12 55 15 70 3 14 13 28
23 30 32 8 306 -2 315 -11z"/>
<path d="M5574 1376 c-18 -14 -19 -27 -16 -318 1 -167 5 -337 8 -378 4 -45 1
-92 -6 -118 -11 -41 -16 -46 -78 -74 -86 -39 -102 -53 -102 -95 0 -42 30 -73
71 -73 16 0 87 24 157 54 70 29 169 64 220 76 112 27 156 53 160 96 3 26 -2
33 -26 43 -24 10 -39 9 -83 -3 -42 -12 -67 -14 -112 -6 -31 5 -62 12 -69 16
-8 5 -9 97 -4 343 4 204 2 352 -3 376 -16 65 -71 94 -117 61z"/>
<path d="M1790 1348 c-20 -11 -26 -22 -28 -61 -4 -55 -1 -57 84 -60 l59 -2 6
-110 c3 -61 7 -260 8 -444 1 -184 4 -338 7 -343 8 -13 122 -10 131 5 4 6 8
149 9 317 1 168 2 312 3 320 2 8 1 91 -2 183 -4 140 -7 171 -21 185 -22 22
-218 30 -256 10z"/>
<path d="M2645 1351 c-16 -4 -40 -13 -51 -19 -12 -6 -23 -10 -25 -7 -2 2 -21
-9 -43 -23 -26 -18 -52 -51 -79 -102 -38 -70 -40 -80 -41 -160 -1 -64 4 -96
19 -130 11 -25 22 -47 25 -50 3 -3 14 -22 25 -44 11 -21 31 -45 45 -54 14 -8
37 -23 52 -33 54 -38 110 -42 229 -17 59 12 111 19 115 15 17 -17 7 -135 -16
-182 -34 -70 -84 -99 -172 -99 l-69 -1 -42 45 c-23 25 -46 54 -52 63 -13 23
-111 29 -124 9 -10 -16 3 -92 17 -101 5 -3 12 -16 16 -28 8 -27 86 -85 151
-114 44 -19 53 -20 133 -9 48 7 107 21 131 31 24 11 48 19 53 19 19 0 88 62
88 79 0 9 6 25 13 36 14 21 32 84 41 145 3 19 6 143 7 275 1 201 -1 247 -15
285 -18 48 -71 110 -94 110 -7 0 -42 16 -76 35 -59 33 -69 35 -147 34 -46 -1
-97 -4 -114 -8z m203 -158 c42 -31 82 -116 82 -175 0 -59 -15 -90 -69 -142
-39 -38 -43 -39 -120 -44 -78 -4 -80 -4 -120 29 -59 47 -81 87 -81 146 0 85
35 154 98 195 39 25 172 20 210 -9z"/>
<path d="M3463 1348 c-32 -15 -49 -61 -62 -163 -7 -49 -19 -141 -28 -203 -20
-145 -18 -151 76 -175 70 -18 71 -18 105 2 27 17 50 21 116 21 77 0 84 -2 122
-32 56 -44 70 -81 62 -169 -7 -67 -10 -75 -48 -114 -32 -34 -53 -45 -96 -55
-107 -24 -188 9 -255 103 -19 27 -22 28 -75 20 -42 -6 -56 -13 -58 -27 -6 -28
38 -117 71 -145 90 -76 158 -107 257 -116 63 -6 84 -3 133 15 31 12 63 27 70
33 7 7 22 17 32 22 11 6 37 45 58 88 30 62 39 95 47 170 13 127 -2 177 -74
255 -16 17 -35 32 -42 32 -6 0 -22 9 -36 19 -13 11 -50 27 -83 36 -69 21 -135
15 -195 -15 -22 -11 -45 -18 -50 -15 -15 9 -12 65 5 121 8 27 15 62 15 77 0
16 5 37 10 48 10 18 23 19 189 19 211 0 217 2 205 89 -4 28 -11 54 -16 57 -17
11 -432 12 -455 2z"/>
<path d="M4505 1348 c-33 -5 -79 -18 -103 -29 -23 -10 -48 -19 -55 -19 -19 0
-72 -59 -90 -100 -43 -97 -49 -145 -51 -409 -1 -352 3 -365 172 -447 94 -46
95 -47 176 -42 166 11 239 53 305 177 31 58 34 73 34 145 0 81 -20 154 -50
184 -7 7 -13 18 -13 23 0 19 -46 71 -75 85 -16 8 -43 22 -59 30 -48 27 -99 28
-199 4 -53 -13 -103 -20 -111 -17 -19 8 -22 90 -5 150 13 47 63 106 106 123
44 19 129 18 162 -2 16 -9 42 -38 60 -65 l32 -49 58 0 c41 0 60 4 64 14 7 18
-13 87 -30 104 -7 7 -13 17 -13 22 0 17 -70 74 -123 102 -56 29 -87 32 -192
16z m170 -543 c52 -41 85 -95 85 -143 0 -60 -25 -126 -65 -169 -34 -37 -36
-38 -118 -41 -100 -5 -130 7 -172 68 -22 31 -30 57 -33 100 -6 79 2 103 45
151 47 52 62 58 151 58 64 1 78 -2 107 -24z"/>
<path d="M5916 1214 c-21 -20 -20 -62 2 -105 10 -19 26 -57 36 -84 31 -83 74
-162 91 -169 51 -19 105 11 105 60 0 45 -99 251 -137 284 -37 33 -73 38 -97
14z"/>
<path d="M10790 1000 c-66 -14 -102 -55 -107 -122 -8 -107 30 -133 190 -130
99 2 108 1 105 -15 -3 -16 -18 -18 -138 -21 -144 -3 -170 -12 -170 -57 0 -28
18 -45 50 -45 14 0 35 -6 45 -14 31 -23 4 -42 -67 -49 -43 -4 -66 -11 -75 -23
-20 -27 -16 -52 13 -70 21 -15 43 -16 150 -11 186 10 195 4 209 -128 10 -86
33 -107 75 -65 16 16 20 33 20 85 0 50 4 69 19 84 24 24 102 36 145 21 39 -13
80 -1 95 29 15 28 14 38 -9 61 -22 22 -72 26 -114 10 -33 -12 -119 17 -124 43
-3 14 5 17 55 18 80 0 127 18 131 48 5 36 -10 44 -105 55 -94 12 -120 31 -56
41 123 19 148 40 148 125 0 63 -15 89 -66 116 -33 17 -354 28 -419 14z m358
-90 c30 -19 41 -43 24 -53 -4 -3 -90 -7 -191 -8 -164 -3 -186 -1 -195 14 -21
32 14 50 116 57 174 13 210 11 246 -10z m-193 -302 c18 -8 25 -18 23 -32 -2
-17 -11 -22 -45 -24 -40 -3 -43 -1 -43 22 0 14 8 30 18 35 21 13 17 13 47 -1z"/>
<path d="M8342 827 c-32 -34 -30 -89 4 -116 37 -29 70 -26 105 8 33 33 35 50
14 90 -24 48 -87 57 -123 18z"/>
<path d="M14385 825 c-30 -29 -33 -74 -6 -106 27 -33 95 -33 122 0 42 51 5
131 -61 131 -19 0 -40 -9 -55 -25z"/>
</g>
</svg>
